<svg xmlns="http://www.w3.org/2000/svg" viewBox="0 0 30 30">
    <g fill="none" fillRule="evenodd">
        <circle cx="15" cy="15" r="15" fill="#16191C" fillOpacity="0.7" fillRule="nonzero">
        </circle>

        <path fill="#FFF" stroke="#FFF" strokeWidth="0.5" d="M11.045 10.172 15 14.126l3.955-3.954a.58.58 0 0 1 .745-.068l.081.068.047.047a.584.584 0 0 1 0 .826L15.874 15l3.954 3.955a.584.584 0 0 1 0 .826l-.047.047a.584.584 0 0 1-.826 0L15 15.874l-3.955 3.954a.58.58 0 0 1-.745.068l-.081-.068-.047-.047a.584.584 0 0 1 0-.826L14.126 15l-3.954-3.955a.584.584 0 0 1 0-.826l.047-.047a.584.584 0 0 1 .826 0z" opacity="0.8"></path>
    </g>
</svg>