<svg xmlns="http://www.w3.org/2000/svg" viewBox="0 0 1920 1080" class="object-cover">
<path d="M1235.5 395.67c-134.78 0-191.33 36.74-275.5 36.78s-140.72-36.78-275.5-36.78c-89.86 0-142 11.53-185.94 25.49 2.08 25.25 4.18 52.9 4.75 60.59 4.75-.3 11.88 0 20.2 5.94s12.47 39.8 26.13 109.89 57.62 105.74 140.19 105.74S823.14 679.21 848.44 654a256.67 256.67 0 0 0 67.81-119.3c5.9-23 13.19-49.39 39.48-49.39h8.54c26.29 0 33.58 26.35 39.48 49.39a256.67 256.67 0 0 0 67.81 119.3c25.3 25.19 76 49.3 158.61 49.3s126.52-35.64 140.19-105.74 17.82-104 26.13-109.89 15.45-6.24 20.2-5.94c.57-7.69 2.67-35.34 4.75-60.59-43.96-13.94-96.08-25.47-185.94-25.47"></path></svg>